<?xml version="1.0" encoding="UTF-8"?>
<svg xmlns="http://www.w3.org/2000/svg" xmlns:xlink="http://www.w3.org/1999/xlink" width="24px" height="24px" viewBox="0 0 24 24" version="1.1">
<g id="surface1">
<path style=" stroke:none;fill-rule:nonzero;fill:rgb(0%,0%,0%);fill-opacity:1;" d="M 12 24 C 8.703125 24.003906 5.554688 22.644531 3.289062 20.25 C -0.621094 16.117188 -1.089844 9.800781 2.167969 5.132812 C 5.429688 0.46875 11.519531 -1.265625 16.75 0.984375 C 21.976562 3.238281 24.902344 8.851562 23.753906 14.425781 C 22.601562 20.003906 17.691406 24 12 24 Z M 19.257812 20.25 C 15.113281 16.582031 8.886719 16.582031 4.742188 20.25 C 8.886719 23.914062 15.113281 23.914062 19.257812 20.25 Z M 17.5 11 C 17.5 7.960938 15.039062 5.5 12 5.5 C 8.960938 5.5 6.5 7.960938 6.5 11 C 6.5 14.039062 8.960938 16.5 12 16.5 C 15.039062 16.5 17.5 14.039062 17.5 11 Z M 12 1 C 7.605469 0.996094 3.632812 3.609375 1.898438 7.644531 C 0.160156 11.679688 0.992188 16.363281 4.015625 19.550781 C 5.480469 18.238281 7.25 17.304688 9.160156 16.839844 C 6.4375 15.515625 4.988281 12.488281 5.664062 9.535156 C 6.34375 6.582031 8.972656 4.492188 12 4.492188 C 15.027344 4.492188 17.65625 6.582031 18.335938 9.535156 C 19.011719 12.488281 17.5625 15.515625 14.839844 16.839844 C 16.75 17.304688 18.519531 18.238281 19.984375 19.550781 C 23.007812 16.363281 23.839844 11.679688 22.101562 7.644531 C 20.367188 3.609375 16.394531 0.996094 12 1 Z M 12 1 "/>
</g>
</svg>
